# xmcd
#
# Track frame offsets: 
#        150
#        21752
#        50851
#        69089
#        92160
#        122500
#        196416
#        221617
#        256371
#
# Disc length: 3820 seconds
#
# Revision: 0
# Processed by: cddbd v1.5.2PL0 Copyright (c) Steve Scherf et al.
# Submitted via: ExactAudioCopy v0.95b4
#
DISCID=7d0eea09
DTITLE=Eric Clapton and Steve Winwood - Live from Madison Square Garde
DYEAR=1900
DGENRE=Blues
TTITLE0=After Midnight
TTITLE1=Split Decision
TTITLE2=Rambling on My Mind
TTITLE3=Georgia on My Mind
TTITLE4=Little Wing
TTITLE5=Voodoo Chile
TTITLE6=Can't Find My Way Home
TTITLE7=Dear Mr. Fantasy
TTITLE8=Cocaine
EXTD=
EXTT0=
EXTT1=
EXTT2=
EXTT3=
EXTT4=
EXTT5=
EXTT6=
EXTT7=
EXTT8=
PLAYORDER=
